<svg width="64" height="64" viewBox="0 0 64 64" fill="none" xmlns="http://www.w3.org/2000/svg">
<rect width="64" height="64" rx="12" fill="#FBFCF7"/>
<g clip-path="url(#clip0_348_166)">
<path d="M32 29C33.5823 29 35.129 28.5308 36.4446 27.6518C37.7602 26.7727 38.7855 25.5233 39.391 24.0615C39.9965 22.5997 40.155 20.9911 39.8463 19.4393C39.5376 17.8874 38.7757 16.462 37.6569 15.3431C36.538 14.2243 35.1126 13.4624 33.5607 13.1537C32.0089 12.845 30.4003 13.0035 28.9385 13.609C27.4767 14.2145 26.2273 15.2398 25.3482 16.5554C24.4692 17.871 24 19.4178 24 21C24.0021 23.1211 24.8457 25.1547 26.3455 26.6545C27.8453 28.1544 29.8789 28.9979 32 29ZM32 15.6667C33.0548 15.6667 34.086 15.9795 34.963 16.5655C35.8401 17.1515 36.5237 17.9845 36.9274 18.959C37.331 19.9336 37.4366 21.0059 37.2309 22.0405C37.0251 23.0751 36.5171 24.0254 35.7712 24.7712C35.0254 25.5171 34.075 26.0251 33.0405 26.2309C32.0059 26.4366 30.9336 26.331 29.959 25.9274C28.9845 25.5237 28.1515 24.8401 27.5655 23.963C26.9795 23.086 26.6667 22.0548 26.6667 21C26.6667 19.5855 27.2286 18.229 28.2288 17.2288C29.229 16.2286 30.5855 15.6667 32 15.6667Z" fill="#41424D"/>
<path d="M32 31.6666C28.8185 31.6702 25.7683 32.9356 23.5186 35.1852C21.2689 37.4349 20.0035 40.4851 20 43.6666C20 44.0202 20.1405 44.3594 20.3905 44.6094C20.6406 44.8595 20.9797 45 21.3333 45C21.687 45 22.0261 44.8595 22.2761 44.6094C22.5262 44.3594 22.6667 44.0202 22.6667 43.6666C22.6667 41.1913 23.65 38.8173 25.4003 37.067C27.1507 35.3166 29.5246 34.3333 32 34.3333C34.4754 34.3333 36.8493 35.3166 38.5997 37.067C40.35 38.8173 41.3333 41.1913 41.3333 43.6666C41.3333 44.0202 41.4738 44.3594 41.7239 44.6094C41.9739 44.8595 42.313 45 42.6667 45C43.0203 45 43.3594 44.8595 43.6095 44.6094C43.8595 44.3594 44 44.0202 44 43.6666C43.9965 40.4851 42.7311 37.4349 40.4814 35.1852C38.2317 32.9356 35.1815 31.6702 32 31.6666Z" fill="#41424D"/>
</g>
<defs>
<clipPath id="clip0_348_166">
<rect width="32" height="32" fill="white" transform="translate(16 13)"/>
</clipPath>
</defs>
</svg>
