<svg width="32" height="32" viewBox="0 0 32 32" fill="none" xmlns="http://www.w3.org/2000/svg">
<g clip-path="url(#clip0_348_241)">
<path d="M25.496 24.5254L30.7214 19.3001C31.5699 18.4109 32.0433 17.2291 32.0433 16.0001C32.0433 14.771 31.5699 13.5892 30.7214 12.7001L25.496 7.47472C25.121 7.09953 24.6123 6.88867 24.0818 6.88855C23.5514 6.88842 23.0426 7.09904 22.6674 7.47405C22.2922 7.84907 22.0813 8.35777 22.0812 8.88825C22.0811 9.41873 22.2917 9.92753 22.6667 10.3027L26.3734 14.0107L2.04004 14.0414C1.50961 14.0414 1.0009 14.2521 0.625826 14.6272C0.250753 15.0022 0.0400391 15.511 0.0400391 16.0414C0.0400391 16.5718 0.250753 17.0805 0.625826 17.4556C1.0009 17.8307 1.50961 18.0414 2.04004 18.0414L26.348 18.0107L22.6667 21.6974C22.3024 22.0746 22.1008 22.5798 22.1054 23.1042C22.1099 23.6286 22.3203 24.1302 22.6911 24.501C23.0619 24.8718 23.5635 25.0822 24.0879 25.0867C24.6123 25.0913 25.1188 24.8897 25.496 24.5254Z" fill="#41424D"/>
</g>
<defs>
<clipPath id="clip0_348_241">
<rect width="32" height="32" fill="white"/>
</clipPath>
</defs>
</svg>
