<svg width="64" height="64" viewBox="0 0 64 64" fill="none" xmlns="http://www.w3.org/2000/svg">
<rect width="64" height="64" rx="12" fill="#FBFCF7"/>
<g clip-path="url(#clip0_348_159)">
<path d="M48 30.996C47.8072 27.876 46.7056 24.8807 44.831 22.3793C42.9564 19.8778 40.3907 17.9796 37.4503 16.9187C34.5099 15.8577 31.3234 15.6805 28.2835 16.4087C25.2435 17.1369 22.4832 18.7388 20.3426 21.0168C18.2021 23.2949 16.775 26.1496 16.2373 29.2289C15.6996 32.3082 16.0747 35.4776 17.3165 38.3463C18.5582 41.215 20.6123 43.6576 23.2255 45.373C25.8387 47.0884 28.8968 48.0016 32.0227 48H41.3334C43.1009 47.9983 44.7956 47.2953 46.0455 46.0455C47.2953 44.7956 47.9983 43.1009 48 41.3334V30.996ZM45.3334 41.3334C45.3334 42.3942 44.9119 43.4116 44.1618 44.1618C43.4117 44.9119 42.3942 45.3334 41.3334 45.3334H32.0227C30.1413 45.3325 28.2812 44.9351 26.5636 44.1671C24.8461 43.3991 23.3097 42.2777 22.0547 40.876C20.7936 39.4751 19.8466 37.8206 19.2772 36.0237C18.7078 34.2268 18.5292 32.3289 18.7534 30.4574C19.1073 27.5053 20.4336 24.7549 22.5233 22.6399C24.613 20.5249 27.3471 19.1655 30.2947 18.776C30.8697 18.704 31.4486 18.6674 32.028 18.6667C35.1353 18.6582 38.1464 19.7439 40.5334 21.7334C41.9274 22.8919 43.0717 24.3216 43.8967 25.9355C44.7218 27.5495 45.2106 29.3142 45.3334 31.1227V41.3334Z" fill="#41424D"/>
<path d="M26.6668 28H32.0002C32.3538 28 32.6929 27.8596 32.943 27.6095C33.193 27.3595 33.3335 27.0203 33.3335 26.6667C33.3335 26.3131 33.193 25.9739 32.943 25.7239C32.6929 25.4739 32.3538 25.3334 32.0002 25.3334H26.6668C26.3132 25.3334 25.9741 25.4739 25.724 25.7239C25.474 25.9739 25.3335 26.3131 25.3335 26.6667C25.3335 27.0203 25.474 27.3595 25.724 27.6095C25.9741 27.8596 26.3132 28 26.6668 28Z" fill="#41424D"/>
<path d="M37.3335 30.6666H26.6668C26.3132 30.6666 25.9741 30.8071 25.724 31.0572C25.474 31.3072 25.3335 31.6463 25.3335 32C25.3335 32.3536 25.474 32.6927 25.724 32.9428C25.9741 33.1928 26.3132 33.3333 26.6668 33.3333H37.3335C37.6871 33.3333 38.0263 33.1928 38.2763 32.9428C38.5264 32.6927 38.6668 32.3536 38.6668 32C38.6668 31.6463 38.5264 31.3072 38.2763 31.0572C38.0263 30.8071 37.6871 30.6666 37.3335 30.6666Z" fill="#41424D"/>
<path d="M37.3335 36H26.6668C26.3132 36 25.9741 36.1405 25.724 36.3905C25.474 36.6406 25.3335 36.9797 25.3335 37.3333C25.3335 37.687 25.474 38.0261 25.724 38.2761C25.9741 38.5262 26.3132 38.6667 26.6668 38.6667H37.3335C37.6871 38.6667 38.0263 38.5262 38.2763 38.2761C38.5264 38.0261 38.6668 37.687 38.6668 37.3333C38.6668 36.9797 38.5264 36.6406 38.2763 36.3905C38.0263 36.1405 37.6871 36 37.3335 36Z" fill="#41424D"/>
</g>
<defs>
<clipPath id="clip0_348_159">
<rect width="32" height="32" fill="white" transform="translate(16 16)"/>
</clipPath>
</defs>
</svg>
