<svg width="64" height="64" viewBox="0 0 64 64" fill="none" xmlns="http://www.w3.org/2000/svg">
<rect width="64" height="64" rx="12" fill="#FBFCF7"/>
<g clip-path="url(#clip0_348_155)">
<path d="M46.828 28.0919L36.7147 17.9773C35.463 16.7293 33.7676 16.0284 32 16.0284C30.2325 16.0284 28.537 16.7293 27.2853 17.9773L17.172 28.0919C16.7992 28.4623 16.5037 28.903 16.3025 29.3885C16.1013 29.8739 15.9985 30.3945 16 30.9199V44.0093C16 45.0701 16.4214 46.0876 17.1716 46.8377C17.9217 47.5879 18.9392 48.0093 20 48.0093H44C45.0609 48.0093 46.0783 47.5879 46.8284 46.8377C47.5786 46.0876 48 45.0701 48 44.0093V30.9199C48.0015 30.3945 47.8987 29.8739 47.6975 29.3885C47.4963 28.903 47.2008 28.4623 46.828 28.0919ZM36 45.3426H28V40.0973C28 39.0364 28.4214 38.019 29.1716 37.2689C29.9217 36.5187 30.9392 36.0973 32 36.0973C33.0609 36.0973 34.0783 36.5187 34.8284 37.2689C35.5786 38.019 36 39.0364 36 40.0973V45.3426ZM45.3333 44.0093C45.3333 44.3629 45.1929 44.702 44.9428 44.9521C44.6928 45.2021 44.3536 45.3426 44 45.3426H38.6667V40.0973C38.6667 38.3292 37.9643 36.6335 36.7141 35.3832C35.4638 34.133 33.7681 33.4306 32 33.4306C30.2319 33.4306 28.5362 34.133 27.286 35.3832C26.0357 36.6335 25.3333 38.3292 25.3333 40.0973V45.3426H20C19.6464 45.3426 19.3073 45.2021 19.0572 44.9521C18.8072 44.702 18.6667 44.3629 18.6667 44.0093V30.9199C18.6679 30.5666 18.8083 30.2279 19.0573 29.9773L29.1707 19.8666C29.9223 19.1185 30.9396 18.6985 32 18.6985C33.0605 18.6985 34.0778 19.1185 34.8293 19.8666L44.9427 29.9813C45.1908 30.2309 45.3311 30.568 45.3333 30.9199V44.0093Z" fill="#41424D"/>
</g>
<defs>
<clipPath id="clip0_348_155">
<rect width="32" height="32" fill="white" transform="translate(16 16)"/>
</clipPath>
</defs>
</svg>
