<svg width="64" height="64" viewBox="0 0 64 64" fill="none" xmlns="http://www.w3.org/2000/svg">
<rect width="64" height="64" rx="12" fill="#FBFCF7"/>
<g clip-path="url(#clip0_348_150)">
<path d="M48.0002 46.1146L39.6509 37.7653C41.8197 35.1127 42.886 31.7281 42.6293 28.3114C42.3726 24.8947 40.8125 21.7073 38.2716 19.4086C35.7308 17.11 32.4037 15.8758 28.9784 15.9615C25.5531 16.0471 22.2918 17.446 19.869 19.8688C17.4462 22.2916 16.0473 25.5529 15.9617 28.9781C15.8761 32.4034 17.1102 35.7306 19.4089 38.2714C21.7076 40.8122 24.8949 42.3724 28.3116 42.6291C31.7283 42.8858 35.113 41.8195 37.7655 39.6506L46.1149 48L48.0002 46.1146ZM29.3335 40C27.2239 40 25.1616 39.3744 23.4074 38.2023C21.6533 37.0302 20.2862 35.3643 19.4788 33.4152C18.6715 31.4662 18.4602 29.3215 18.8718 27.2523C19.2834 25.1832 20.2993 23.2826 21.7911 21.7908C23.2828 20.2991 25.1834 19.2832 27.2526 18.8716C29.3217 18.46 31.4664 18.6712 33.4155 19.4786C35.3646 20.2859 37.0305 21.6531 38.2025 23.4072C39.3746 25.1613 40.0002 27.2236 40.0002 29.3333C39.997 32.1613 38.8722 34.8726 36.8725 36.8723C34.8728 38.872 32.1615 39.9968 29.3335 40Z" fill="#41424D"/>
</g>
<defs>
<clipPath id="clip0_348_150">
<rect width="32" height="32" fill="white" transform="translate(16 16)"/>
</clipPath>
</defs>
</svg>
